<?xml version="1.0" encoding="utf-8"?>
<!-- Generator: Adobe Illustrator 17.0.0, SVG Export Plug-In . SVG Version: 6.00 Build 0)  -->
<!DOCTYPE svg PUBLIC "-//W3C//DTD SVG 1.1//EN" "http://www.w3.org/Graphics/SVG/1.1/DTD/svg11.dtd">
<svg version="1.1" id="Layer_1" xmlns="http://www.w3.org/2000/svg" xmlns:xlink="http://www.w3.org/1999/xlink" x="0px" y="0px"
	 width="62px" height="62px" viewBox="0 0 62 62" enable-background="new 0 0 62 62" xml:space="preserve">
<g>
	<polyline fill="none" stroke="#696969" stroke-linecap="round" stroke-linejoin="round" stroke-miterlimit="10" points="
		52.83,33.465 52.83,1 9.169,1 9.169,33.465 	"/>
	<path fill="none" stroke="#11324D" stroke-linecap="round" stroke-linejoin="round" stroke-miterlimit="10" d="M52.83,21.994
		l4.558,5.734v28.683c0,2.524-2.066,4.589-4.589,4.589H9.201c-2.525,0-4.589-2.065-4.589-4.589V27.729l4.589-5.735"/>
	
		<line fill="none" stroke="#11324D" stroke-linecap="round" stroke-linejoin="round" stroke-miterlimit="10" x1="43.62" y1="44.938" x2="57.388" y2="27.728"/>
	
		<line fill="none" stroke="#11324D" stroke-linecap="round" stroke-linejoin="round" stroke-miterlimit="10" x1="4.613" y1="27.729" x2="18.38" y2="44.938"/>
	<path fill="none" stroke="#11324D" stroke-linecap="round" stroke-linejoin="round" stroke-miterlimit="10" d="M57.201,57.691
		L34.244,37.098c-1.785-1.785-4.706-1.785-6.49,0L4.798,57.691"/>
	
		<ellipse fill="none" stroke="#BA351E" stroke-linecap="round" stroke-linejoin="round" stroke-miterlimit="10" cx="34.957" cy="18.723" rx="2.473" ry="8.407"/>
	
		<line fill="none" stroke="#BA351E" stroke-linecap="round" stroke-linejoin="round" stroke-miterlimit="10" x1="34.957" y1="10.317" x2="17.685" y2="15.262"/>
	
		<line fill="none" stroke="#BA351E" stroke-linecap="round" stroke-linejoin="round" stroke-miterlimit="10" x1="34.957" y1="27.13" x2="17.685" y2="22.185"/>
	<path fill="none" stroke="#BA351E" stroke-linecap="round" stroke-linejoin="round" stroke-miterlimit="10" d="M17.685,22.185
		c-0.547,0-0.989-1.55-0.989-3.462c0-1.911,0.442-3.461,0.989-3.461"/>
	<path fill="none" stroke="#BA351E" stroke-linecap="round" stroke-linejoin="round" stroke-miterlimit="10" d="M32.584,16.314
		c1.097,0.253,1.914,1.236,1.914,2.409c0,1.172-0.816,2.154-1.91,2.409"/>
	<path fill="none" stroke="#BA351E" stroke-linecap="round" stroke-linejoin="round" stroke-miterlimit="10" d="M16.632,21.132
		c-1.097-0.253-1.914-1.235-1.914-2.409c0-1.173,0.816-2.154,1.91-2.408"/>
	<path fill="none" stroke="#BA351E" stroke-linecap="round" stroke-linejoin="round" stroke-miterlimit="10" d="M28.07,25.387v2.967
		c0,0.544-0.428,0.867-0.951,0.717l-5.021-1.434c-0.523-0.15-0.951-0.717-0.951-1.261v-2.967"/>
	
		<line fill="none" stroke="#BA351E" stroke-linecap="round" stroke-linejoin="round" stroke-miterlimit="10" x1="39.997" y1="12.789" x2="44.308" y2="11.269"/>
	
		<line fill="none" stroke="#BA351E" stroke-linecap="round" stroke-linejoin="round" stroke-miterlimit="10" x1="39.997" y1="24.68" x2="44.308" y2="26.2"/>
	
		<line fill="none" stroke="#BA351E" stroke-linecap="round" stroke-linejoin="round" stroke-miterlimit="10" x1="40.169" y1="18.724" x2="45.78" y2="18.724"/>
</g>
</svg>
