<?xml version="1.0" encoding="utf-8"?>
<!-- Generator: Adobe Illustrator 17.0.0, SVG Export Plug-In . SVG Version: 6.00 Build 0)  -->
<!DOCTYPE svg PUBLIC "-//W3C//DTD SVG 1.1//EN" "http://www.w3.org/Graphics/SVG/1.1/DTD/svg11.dtd">
<svg version="1.1" id="Layer_1" xmlns="http://www.w3.org/2000/svg" xmlns:xlink="http://www.w3.org/1999/xlink" x="0px" y="0px"
	 width="62px" height="62px" viewBox="0 0 62 62" enable-background="new 0 0 62 62" xml:space="preserve">
<g>
	<path fill="#FFFFFF" d="M54.819,39.474c0,2.674-2.168,4.843-4.843,4.843c-2.674,0-4.842-2.169-4.842-4.843
		c0-2.674,2.168-4.843,4.842-4.843C52.651,34.631,54.819,36.8,54.819,39.474"/>
	
		<circle fill="none" stroke="#696969" stroke-linecap="round" stroke-linejoin="round" stroke-miterlimit="10" cx="49.977" cy="39.474" r="4.843"/>
	<path fill="#FFFFFF" d="M39.678,56.158c0-5.688,4.611-10.299,10.299-10.299c5.687,0,10.298,4.611,10.298,10.299H39.678z"/>
	<path fill="none" stroke="#696969" stroke-linecap="round" stroke-linejoin="round" stroke-miterlimit="10" d="M39.678,56.158
		c0-5.688,4.611-10.299,10.299-10.299c5.687,0,10.298,4.611,10.298,10.299H39.678z"/>
	<path fill="#FFFFFF" d="M16.866,39.474c0,2.674-2.168,4.843-4.843,4.843c-2.674,0-4.842-2.169-4.842-4.843
		c0-2.674,2.168-4.843,4.842-4.843C14.698,34.631,16.866,36.8,16.866,39.474"/>
	
		<circle fill="none" stroke="#696969" stroke-linecap="round" stroke-linejoin="round" stroke-miterlimit="10" cx="12.024" cy="39.474" r="4.843"/>
	<path fill="#FFFFFF" d="M1.725,56.158c0-5.688,4.611-10.299,10.299-10.299c5.687,0,10.298,4.611,10.298,10.299H1.725z"/>
	<path fill="none" stroke="#696969" stroke-linecap="round" stroke-linejoin="round" stroke-miterlimit="10" d="M1.725,56.158
		c0-5.688,4.611-10.299,10.299-10.299c5.687,0,10.298,4.611,10.298,10.299H1.725z"/>
	<path fill="#FFFFFF" d="M35.843,44.317c0,2.674-2.168,4.843-4.843,4.843c-2.674,0-4.842-2.169-4.842-4.843
		c0-2.674,2.168-4.843,4.842-4.843C33.675,39.474,35.843,41.643,35.843,44.317"/>
	
		<circle fill="none" stroke="#696969" stroke-linecap="round" stroke-linejoin="round" stroke-miterlimit="10" cx="31" cy="44.317" r="4.843"/>
	<path fill="#FFFFFF" d="M20.702,61c0-5.688,4.611-10.299,10.299-10.299c5.687,0,10.298,4.611,10.298,10.299H20.702z"/>
	<path fill="none" stroke="#696969" stroke-linecap="round" stroke-linejoin="round" stroke-miterlimit="10" d="M20.702,61
		c0-5.688,4.611-10.299,10.299-10.299c5.687,0,10.298,4.611,10.298,10.299H20.702z"/>
	<path fill="none" stroke="#11324D" stroke-linecap="round" stroke-linejoin="round" stroke-miterlimit="10" d="M49.449,26.831
		H12.551c-1.105,0-2-0.895-2-2V3c0-1.104,0.895-2,2-2h36.898c1.105,0,2,0.896,2,2v21.831C51.449,25.936,50.554,26.831,49.449,26.831
		z"/>
	
		<rect x="13.78" y="4.253" fill="none" stroke="#696969" stroke-linecap="round" stroke-linejoin="round" stroke-miterlimit="10" width="34.441" height="19.327"/>
	
		<line fill="none" stroke="#11324D" stroke-linecap="round" stroke-linejoin="round" stroke-miterlimit="10" x1="34.523" y1="26.831" x2="34.523" y2="33.266"/>
	
		<line fill="none" stroke="#11324D" stroke-linecap="round" stroke-linejoin="round" stroke-miterlimit="10" x1="27.478" y1="26.831" x2="27.478" y2="33.266"/>
	
		<line fill="none" stroke="#11324D" stroke-linecap="round" stroke-linejoin="round" stroke-miterlimit="10" x1="22.198" y1="33.266" x2="39.803" y2="33.266"/>
	<path fill="#FFFFFF" d="M26.795,11.264c0,1.974-1.6,3.575-3.575,3.575c-1.974,0-3.574-1.601-3.574-3.575
		c0-1.974,1.6-3.575,3.574-3.575C25.195,7.689,26.795,9.29,26.795,11.264"/>
	
		<circle fill="none" stroke="#BA351E" stroke-linecap="round" stroke-linejoin="round" stroke-miterlimit="10" cx="23.22" cy="11.264" r="3.575"/>
	<path fill="none" stroke="#BA351E" stroke-linecap="round" stroke-linejoin="round" stroke-miterlimit="10" d="M37.465,11.617
		c-1.052-0.863-1.915,0.317-1.915,0.317c-3.168,4.688-11.083,4.145-11.083,4.145l-0.185-0.015c-0.396-0.076-0.611-0.087-1.062-0.087
		c-4.199,0-7.602,3.403-7.602,7.602h13.715c0-0.331-0.057-0.95-0.057-0.95s-0.299-3.202,0.615-4.361
		c2.474-0.308,5.758-1.242,7.574-3.929C37.465,14.339,38.72,12.647,37.465,11.617z"/>
	
		<line fill="none" stroke="#BA351E" stroke-linecap="round" stroke-linejoin="round" stroke-miterlimit="10" x1="37.465" y1="11.617" x2="44.23" y2="7.689"/>
</g>
</svg>
