<?xml version="1.0" encoding="utf-8"?>
<!-- Generator: Adobe Illustrator 17.0.0, SVG Export Plug-In . SVG Version: 6.00 Build 0)  -->
<!DOCTYPE svg PUBLIC "-//W3C//DTD SVG 1.1//EN" "http://www.w3.org/Graphics/SVG/1.1/DTD/svg11.dtd">
<svg version="1.1" id="Layer_1" xmlns="http://www.w3.org/2000/svg" xmlns:xlink="http://www.w3.org/1999/xlink" x="0px" y="0px"
	 width="62px" height="62px" viewBox="0 0 62 62" enable-background="new 0 0 62 62" xml:space="preserve">
<g>
	
		<path fill="none" stroke="#BA351E" stroke-width="0.8592" stroke-linecap="round" stroke-linejoin="round" stroke-miterlimit="10" d="
		M44.458,11.629c0.001-0.038,0.011-0.072,0.011-0.11c0-4.663-3.78-8.443-8.444-8.443c-4.663,0-8.443,3.781-8.443,8.443
		c0,0.109,0.027,0.21,0.032,0.317c-0.655-0.327-1.383-0.528-2.165-0.528c-2.694,0-4.878,2.183-4.878,4.878
		c0,0.18,0.007,0.519-0.069,0.489c-0.309-0.122-1.165-0.489-1.733-0.489c-1.699,0-3.076,1.376-3.076,3.076
		c0,1.699,1.377,3.076,3.076,3.076h24.599c2.987,0,5.41-2.422,5.41-5.41C48.778,14.314,46.923,12.134,44.458,11.629z"/>
	
		<line fill="none" stroke="#BA351E" stroke-width="0.8592" stroke-linecap="round" stroke-linejoin="round" stroke-miterlimit="10" x1="32.235" y1="22.338" x2="32.235" y2="37.069"/>
	
		<path fill="none" stroke="#BA351E" stroke-width="0.8592" stroke-linecap="round" stroke-linejoin="round" stroke-miterlimit="10" d="
		M26.597,22.338v7.201c0,1.317-1.068,2.386-2.386,2.386H10.125c-1.317,0-2.385,1.068-2.385,2.385v7.442"/>
	
		<path fill="none" stroke="#BA351E" stroke-width="0.8592" stroke-linecap="round" stroke-linejoin="round" stroke-miterlimit="10" d="
		M37.802,22.338v7.201c0,1.317,1.068,2.386,2.386,2.386h14.086c1.317,0,2.385,1.068,2.385,2.385v9.061"/>
	
		<path fill="none" stroke="#11324D" stroke-width="0.8592" stroke-linecap="round" stroke-linejoin="round" stroke-miterlimit="10" d="
		M44.368,54.565H20.103c-0.949,0-1.718-0.769-1.718-1.718V38.788c0-0.949,0.769-1.718,1.718-1.718h24.265
		c0.949,0,1.718,0.77,1.718,1.718v14.059C46.086,53.796,45.317,54.565,44.368,54.565z"/>
	
		<rect x="20.572" y="39.272" fill="none" stroke="#696969" stroke-width="0.8592" stroke-linecap="round" stroke-linejoin="round" stroke-miterlimit="10" width="23.327" height="13.091"/>
	
		<line fill="none" stroke="#11324D" stroke-width="0.8592" stroke-linecap="round" stroke-linejoin="round" stroke-miterlimit="10" x1="34.621" y1="54.565" x2="34.621" y2="58.924"/>
	
		<line fill="none" stroke="#11324D" stroke-width="0.8592" stroke-linecap="round" stroke-linejoin="round" stroke-miterlimit="10" x1="29.849" y1="54.565" x2="29.849" y2="58.924"/>
	
		<line fill="none" stroke="#11324D" stroke-width="0.8592" stroke-linecap="round" stroke-linejoin="round" stroke-miterlimit="10" x1="26.273" y1="58.924" x2="38.197" y2="58.924"/>
	
		<line fill="none" stroke="#696969" stroke-width="0.8592" stroke-linecap="round" stroke-linejoin="round" stroke-miterlimit="10" x1="52.319" y1="45.406" x2="61" y2="45.406"/>
	
		<line fill="none" stroke="#696969" stroke-width="0.8592" stroke-linecap="round" stroke-linejoin="round" stroke-miterlimit="10" x1="52.319" y1="56.195" x2="61" y2="56.195"/>
	
		<path fill="none" stroke="#11324D" stroke-width="0.8592" stroke-linecap="round" stroke-linejoin="round" stroke-miterlimit="10" d="
		M60.141,58.924h-6.962c-0.474,0-0.859-0.385-0.859-0.859V44.23c0-0.474,0.385-0.859,0.859-0.859h6.962
		c0.474,0,0.859,0.385,0.859,0.859v13.834C61,58.539,60.615,58.924,60.141,58.924z"/>
	
		<path fill="none" stroke="#11324D" stroke-width="0.8592" stroke-linecap="round" stroke-linejoin="round" stroke-miterlimit="10" d="
		M13.62,58.924H1.859C1.385,58.924,1,58.539,1,58.065V42.612c0-0.474,0.385-0.859,0.859-0.859H13.62
		c0.474,0,0.859,0.385,0.859,0.859v15.453C14.479,58.539,14.094,58.924,13.62,58.924z"/>
	
		<rect x="2.642" y="43.371" fill="none" stroke="#696969" stroke-width="0.8592" stroke-linecap="round" stroke-linejoin="round" stroke-miterlimit="10" width="10.195" height="12.989"/>
</g>
</svg>
